<svg xmlns="http://www.w3.org/2000/svg" xmlns:xlink="http://www.w3.org/1999/xlink" width="500" zoomAndPan="magnify" viewBox="0 0 375 374.999991" height="500" preserveAspectRatio="xMidYMid meet" version="1.0"><defs><clipPath id="b395347dc7"><path d="M 290.535156 144.628906 L 298.785156 144.628906 L 298.785156 151.378906 L 290.535156 151.378906 Z M 290.535156 144.628906 " clip-rule="nonzero"/></clipPath><clipPath id="63ce9b9669"><path d="M 47 41 L 342 41 L 342 336 L 47 336 Z M 47 41 " clip-rule="nonzero"/></clipPath><clipPath id="b5c793ea3f"><path d="M 47.933594 188.269531 L 194.726562 41.472656 L 341.519531 188.269531 L 194.726562 335.0625 Z M 47.933594 188.269531 " clip-rule="nonzero"/></clipPath><clipPath id="08b00cf9a4"><path d="M 193 85 L 298 85 L 298 190 L 193 190 Z M 193 85 " clip-rule="nonzero"/></clipPath><clipPath id="87e4117f29"><path d="M 193.402344 137.582031 L 245.773438 85.210938 L 297.585938 137.023438 L 245.214844 189.394531 Z M 193.402344 137.582031 " clip-rule="nonzero"/></clipPath><clipPath id="fb059838a7"><path d="M 72 170 L 152 170 L 152 250 L 72 250 Z M 72 170 " clip-rule="nonzero"/></clipPath><clipPath id="a2a502ec0b"><path d="M 72.355469 220.480469 L 122.398438 170.4375 L 151.828125 199.863281 L 101.785156 249.910156 Z M 72.355469 220.480469 " clip-rule="nonzero"/></clipPath><clipPath id="65b5ab399f"><path d="M 272 164 L 321 164 L 321 213 L 272 213 Z M 272 164 " clip-rule="nonzero"/></clipPath><clipPath id="d28519fc39"><path d="M 272.757812 198.484375 L 306.675781 164.566406 L 320.574219 178.464844 L 286.65625 212.382812 Z M 272.757812 198.484375 " clip-rule="nonzero"/></clipPath></defs><g clip-path="url(#b395347dc7)"><path fill="#ffffff" d="M 293.160156 151.222656 C 293.160156 151.222656 293.117188 151.234375 293.070312 151.234375 C 293.027344 151.230469 292.933594 151.21875 292.953125 151.21875 C 292.976562 151.21875 293.003906 151.179688 293.003906 151.179688 L 292.964844 151.175781 L 292.964844 151.144531 L 293.023438 151.144531 L 293.445312 150.21875 C 293.445312 150.21875 293.496094 150.214844 293.5 150.210938 C 293.445312 150.210938 293.410156 150.214844 293.40625 150.207031 C 293.410156 150.199219 293.859375 149.183594 293.875 149.160156 C 293.878906 149.152344 293.921875 149.15625 293.921875 149.15625 L 293.960938 148.894531 L 293.929688 148.894531 C 293.929688 148.894531 294.003906 148.34375 293.996094 148.328125 C 293.984375 148.3125 293.394531 148.34375 292.992188 148.316406 C 292.589844 148.289062 292.375 148.246094 292.296875 148.226562 C 292.226562 148.207031 292.210938 148.222656 292.179688 148.257812 C 292.148438 148.292969 291.628906 148.992188 291.585938 149.050781 C 291.539062 149.109375 291.519531 149.109375 291.492188 149.109375 C 291.460938 149.109375 291.230469 149.113281 291.230469 149.113281 L 291.464844 148.136719 C 291.464844 148.136719 291.371094 148.128906 291.355469 148.117188 C 291.339844 148.101562 291.347656 148.074219 291.347656 148.074219 C 291.347656 148.074219 291.144531 148.054688 291.132812 148.042969 C 291.117188 148.03125 291.113281 148.011719 291.113281 148.011719 C 291.113281 148.011719 290.902344 147.96875 290.898438 147.949219 C 290.902344 147.929688 291.113281 147.886719 291.113281 147.886719 C 291.113281 147.886719 291.117188 147.867188 291.132812 147.855469 C 291.144531 147.84375 291.347656 147.824219 291.347656 147.824219 C 291.347656 147.824219 291.339844 147.796875 291.355469 147.78125 C 291.371094 147.765625 291.464844 147.761719 291.464844 147.761719 L 291.230469 146.785156 C 291.230469 146.785156 291.460938 146.785156 291.492188 146.785156 C 291.519531 146.785156 291.539062 146.789062 291.585938 146.84375 C 291.628906 146.90625 292.148438 147.605469 292.179688 147.640625 C 292.210938 147.675781 292.226562 147.691406 292.296875 147.671875 C 292.375 147.652344 292.589844 147.609375 292.992188 147.582031 C 293.394531 147.554688 293.984375 147.585938 293.996094 147.570312 C 294.003906 147.554688 293.929688 147.003906 293.929688 147.003906 L 293.960938 147.003906 L 293.921875 146.742188 C 293.921875 146.742188 293.878906 146.746094 293.875 146.738281 C 293.859375 146.714844 293.410156 145.699219 293.40625 145.691406 C 293.410156 145.683594 293.445312 145.6875 293.5 145.683594 C 293.496094 145.679688 293.445312 145.679688 293.445312 145.679688 L 293.023438 144.753906 L 292.964844 144.753906 L 292.964844 144.722656 L 293.003906 144.71875 C 293.003906 144.71875 292.976562 144.675781 292.953125 144.675781 C 292.933594 144.675781 293.027344 144.664062 293.070312 144.664062 C 293.117188 144.664062 293.160156 144.671875 293.160156 144.671875 C 293.160156 144.671875 293.148438 144.640625 293.191406 144.644531 C 293.21875 144.648438 293.339844 144.730469 293.339844 144.730469 C 293.339844 144.730469 293.355469 144.734375 293.367188 144.734375 C 293.382812 144.734375 293.394531 144.75 293.402344 144.761719 C 293.40625 144.765625 293.433594 144.757812 293.433594 144.757812 C 293.433594 144.757812 293.695312 145.066406 294.109375 145.597656 C 294.519531 146.128906 295.023438 146.757812 295.023438 146.757812 C 295.023438 146.757812 295.054688 146.757812 295.09375 146.75 C 295.136719 146.746094 295.152344 146.742188 295.152344 146.742188 C 295.152344 146.742188 295.164062 146.707031 295.1875 146.699219 C 295.207031 146.695312 295.351562 146.675781 295.480469 146.679688 C 295.605469 146.683594 295.671875 146.691406 295.695312 146.699219 C 295.714844 146.707031 295.722656 146.738281 295.730469 146.773438 C 295.734375 146.8125 295.730469 146.964844 295.726562 147.003906 C 295.722656 147.039062 295.714844 147.058594 295.667969 147.066406 C 295.617188 147.070312 295.445312 147.074219 295.375 147.066406 C 295.328125 147.066406 295.269531 147.050781 295.269531 147.058594 C 295.265625 147.066406 295.386719 147.191406 295.4375 147.261719 C 295.488281 147.332031 295.589844 147.453125 295.621094 147.464844 C 295.65625 147.480469 295.660156 147.484375 295.628906 147.492188 C 295.601562 147.5 295.570312 147.5 295.550781 147.488281 C 295.53125 147.476562 295.503906 147.46875 295.492188 147.480469 C 295.488281 147.484375 295.519531 147.519531 295.535156 147.527344 C 295.554688 147.539062 295.585938 147.527344 295.601562 147.535156 C 295.617188 147.539062 295.65625 147.5625 295.691406 147.5625 C 295.902344 147.558594 296.210938 147.550781 296.890625 147.546875 C 297.621094 147.546875 297.835938 147.554688 298.226562 147.644531 C 298.578125 147.730469 298.648438 147.792969 298.699219 147.824219 C 298.746094 147.851562 298.785156 147.921875 298.785156 147.949219 C 298.785156 147.976562 298.746094 148.042969 298.699219 148.074219 C 298.648438 148.105469 298.578125 148.167969 298.226562 148.253906 C 297.835938 148.34375 297.621094 148.351562 296.890625 148.351562 C 296.210938 148.347656 295.898438 148.339844 295.691406 148.335938 C 295.65625 148.335938 295.617188 148.355469 295.601562 148.363281 C 295.585938 148.367188 295.554688 148.359375 295.535156 148.367188 C 295.519531 148.378906 295.488281 148.414062 295.492188 148.417969 C 295.503906 148.429688 295.53125 148.421875 295.550781 148.410156 C 295.570312 148.398438 295.601562 148.398438 295.628906 148.40625 C 295.660156 148.414062 295.65625 148.417969 295.621094 148.429688 C 295.589844 148.445312 295.488281 148.566406 295.4375 148.632812 C 295.386719 148.703125 295.265625 148.832031 295.269531 148.839844 C 295.269531 148.84375 295.328125 148.832031 295.375 148.828125 C 295.445312 148.824219 295.617188 148.828125 295.667969 148.832031 C 295.714844 148.839844 295.722656 148.859375 295.726562 148.894531 C 295.730469 148.933594 295.734375 149.085938 295.730469 149.125 C 295.722656 149.160156 295.714844 149.191406 295.695312 149.199219 C 295.671875 149.207031 295.605469 149.214844 295.480469 149.21875 C 295.351562 149.222656 295.207031 149.203125 295.1875 149.199219 C 295.164062 149.1875 295.152344 149.15625 295.152344 149.15625 C 295.152344 149.15625 295.136719 149.152344 295.09375 149.148438 C 295.054688 149.140625 295.023438 149.140625 295.023438 149.140625 C 295.023438 149.140625 294.519531 149.769531 294.109375 150.300781 C 293.695312 150.832031 293.433594 151.136719 293.433594 151.136719 C 293.433594 151.136719 293.40625 151.132812 293.402344 151.136719 C 293.394531 151.148438 293.382812 151.164062 293.367188 151.164062 C 293.355469 151.164062 293.339844 151.167969 293.339844 151.167969 C 293.339844 151.167969 293.21875 151.25 293.191406 151.253906 C 293.148438 151.257812 293.160156 151.222656 293.160156 151.222656 Z M 293.464844 144.863281 L 293.417969 144.800781 L 293.410156 144.808594 L 293.457031 144.871094 Z M 293.558594 144.988281 L 293.46875 144.871094 L 293.464844 144.875 L 293.550781 144.992188 Z M 293.652344 145.109375 L 293.566406 144.996094 L 293.558594 145 L 293.648438 145.117188 Z M 293.773438 145.265625 L 293.660156 145.117188 L 293.652344 145.121094 L 293.765625 145.273438 Z M 293.882812 145.410156 L 293.777344 145.273438 L 293.773438 145.277344 L 293.875 145.414062 Z M 293.996094 145.554688 L 293.890625 145.417969 L 293.882812 145.421875 L 293.988281 145.558594 Z M 294.109375 145.703125 L 294 145.5625 L 293.992188 145.566406 L 294.101562 145.710938 Z M 294.226562 145.855469 L 294.113281 145.710938 L 294.109375 145.71875 L 294.21875 145.863281 Z M 294.339844 146.007812 L 294.230469 145.863281 L 294.222656 145.867188 L 294.332031 146.011719 Z M 294.453125 146.15625 L 294.347656 146.011719 L 294.339844 146.019531 L 294.449219 146.160156 Z M 294.566406 146.300781 L 294.460938 146.164062 L 294.453125 146.167969 L 294.558594 146.304688 Z M 294.675781 146.441406 L 294.570312 146.304688 L 294.5625 146.3125 L 294.667969 146.445312 Z M 294.804688 146.609375 L 294.679688 146.449219 L 294.671875 146.453125 L 294.796875 146.613281 Z M 294.835938 146.65625 L 294.808594 146.617188 L 294.800781 146.621094 L 294.828125 146.660156 Z M 294.945312 146.792969 L 294.84375 146.660156 L 294.835938 146.664062 L 294.9375 146.796875 Z M 294.945312 149.105469 L 294.9375 149.097656 L 294.835938 149.230469 L 294.84375 149.234375 Z M 294.835938 149.242188 L 294.828125 149.238281 L 294.800781 149.277344 L 294.808594 149.28125 Z M 294.804688 149.285156 L 294.796875 149.28125 L 294.671875 149.445312 L 294.679688 149.449219 Z M 294.675781 149.457031 L 294.667969 149.449219 L 294.5625 149.585938 L 294.570312 149.589844 Z M 294.566406 149.597656 L 294.558594 149.59375 L 294.453125 149.730469 L 294.460938 149.734375 Z M 294.453125 149.742188 L 294.449219 149.738281 L 294.339844 149.878906 L 294.347656 149.882812 Z M 294.339844 149.890625 L 294.332031 149.886719 L 294.222656 150.027344 L 294.230469 150.035156 Z M 294.226562 150.042969 L 294.21875 150.035156 L 294.109375 150.179688 L 294.113281 150.1875 Z M 294.109375 150.191406 L 294.101562 150.1875 L 293.992188 150.332031 L 294 150.335938 Z M 293.996094 150.34375 L 293.988281 150.335938 L 293.882812 150.476562 L 293.890625 150.480469 Z M 293.882812 150.488281 L 293.875 150.480469 L 293.773438 150.617188 L 293.777344 150.625 Z M 293.773438 150.632812 L 293.765625 150.625 L 293.652344 150.773438 L 293.660156 150.78125 Z M 293.652344 150.785156 L 293.648438 150.78125 L 293.558594 150.898438 L 293.566406 150.902344 Z M 293.558594 150.910156 L 293.550781 150.90625 L 293.464844 151.019531 L 293.46875 151.027344 Z M 293.464844 151.035156 L 293.457031 151.027344 L 293.410156 151.089844 L 293.417969 151.09375 Z M 293.464844 151.035156 " fill-opacity="1" fill-rule="evenodd"/></g><g clip-path="url(#63ce9b9669)"><g clip-path="url(#b5c793ea3f)"><path fill="#ffffff" d="M 47.933594 188.269531 L 194.726562 41.472656 L 341.519531 188.269531 L 194.726562 335.0625 Z M 47.933594 188.269531 " fill-opacity="1" fill-rule="nonzero"/></g></g><g clip-path="url(#08b00cf9a4)"><g clip-path="url(#87e4117f29)"><path fill="#ffffff" d="M 193.402344 137.582031 L 245.824219 85.160156 L 297.636719 136.972656 L 245.214844 189.394531 Z M 193.402344 137.582031 " fill-opacity="1" fill-rule="nonzero"/></g></g><g clip-path="url(#fb059838a7)"><g clip-path="url(#a2a502ec0b)"><path fill="#f2f2f2" d="M 72.355469 220.480469 L 122.359375 170.476562 L 151.789062 199.902344 L 101.785156 249.910156 Z M 72.355469 220.480469 " fill-opacity="1" fill-rule="nonzero"/></g></g><path fill="#d71920" d="M 98.839844 229.054688 C 88.136719 230.671875 77.3125 227.027344 69.660156 219.371094 L 51.539062 201.25 C 43.945312 193.65625 43.945312 181.335938 51.539062 173.738281 L 179.683594 45.605469 C 187.277344 38.011719 199.589844 38.011719 207.183594 45.605469 L 253.46875 91.878906 C 258.644531 97.050781 259.789062 105.019531 256.292969 111.445312 C 256.273438 111.476562 256.257812 111.511719 256.238281 111.546875 L 254.851562 114.050781 L 253.367188 116.476562 L 250.375 121.335938 C 249.359375 122.957031 248.414062 124.617188 247.355469 126.1875 L 244.132812 130.902344 C 227.023438 156.078125 205.558594 178.578125 180.082031 195.910156 C 156.015625 212.335938 128.335938 224.058594 99.035156 229.027344 C 98.984375 229.035156 98.917969 229.046875 98.839844 229.054688 " fill-opacity="1" fill-rule="nonzero"/><path fill="#ff9801" d="M 207.183594 329.386719 L 335.328125 201.25 C 342.921875 193.65625 342.921875 181.335938 335.328125 173.738281 L 295.214844 133.621094 C 292.371094 130.78125 287.65625 131.167969 285.308594 134.429688 L 285.308594 134.433594 L 283.328125 136.960938 L 279.34375 142.003906 C 278 143.679688 276.71875 145.386719 275.324219 147.015625 L 271.257812 151.695312 L 271.109375 151.867188 C 248.765625 177.609375 222.054688 199.65625 192.039062 215.3125 C 191.9375 215.371094 191.824219 215.425781 191.722656 215.484375 C 161.660156 231.183594 128.34375 240.351562 95.023438 241.148438 C 93.898438 241.179688 92.777344 241.203125 91.652344 241.214844 C 83.910156 240.863281 76.171875 239.984375 68.496094 238.515625 L 66.082031 238.085938 C 65.28125 237.914062 64.488281 237.71875 63.691406 237.527344 L 58.90625 236.386719 C 58.667969 236.328125 58.417969 236.273438 58.175781 236.214844 C 56.820312 235.886719 55.515625 235.441406 54.171875 235.054688 L 49.433594 233.640625 L 44.789062 231.96875 L 42.464844 231.125 C 41.667969 230.867188 40.902344 230.566406 40.152344 230.226562 L 35.597656 228.28125 L 33.308594 227.300781 L 31.089844 226.1875 C 19.15625 220.398438 7.917969 212.964844 -2.148438 203.992188 C 15.113281 223.429688 37.988281 238.414062 63.359375 246.820312 C 64.292969 247.125 65.214844 247.421875 66.148438 247.707031 C 77.246094 251.222656 88.75 253.566406 100.417969 254.804688 C 103.796875 255.160156 106.945312 256.65625 109.347656 259.054688 L 111.730469 261.429688 L 179.683594 329.386719 C 187.277344 336.980469 199.589844 336.980469 207.183594 329.386719 " fill-opacity="1" fill-rule="nonzero"/><g clip-path="url(#65b5ab399f)"><g clip-path="url(#d28519fc39)"><path fill="#ffffff" d="M 272.757812 198.484375 L 306.695312 164.546875 L 320.59375 178.445312 L 286.65625 212.382812 Z M 272.757812 198.484375 " fill-opacity="1" fill-rule="nonzero"/></g></g></svg>